<svg xmlns="http://www.w3.org/2000/svg" width="1176" height="891" viewBox="0 0 1176 891">
<g>
<path d="M 0.00 0.00 L 1176.00 0.00 L 1176.00 891.00 L 0.00 891.00 ZM 341.58 488.44 C351.07,490.32 365.56,490.32 374.72,488.42 C399.91,483.22 412.74,466.43 409.85,442.45 C408.80,433.71 406.10,428.00 400.23,422.13 C394.25,416.16 384.22,411.24 370.50,407.56 C338.58,399.00 332.37,395.50 331.24,385.44 C330.60,379.77 331.41,376.85 334.72,372.92 C339.06,367.76 344.56,365.89 355.44,365.86 C363.73,365.85 365.50,366.17 370.62,368.67 C376.96,371.76 381.42,376.61 383.48,382.63 C384.30,385.04 385.50,386.59 386.65,386.74 C387.67,386.88 392.55,385.94 397.50,384.66 L 406.50 382.32 L 406.23 378.91 C405.85,374.17 401.74,366.13 396.89,360.61 C394.02,357.35 390.34,354.78 384.65,352.05 C375.21,347.52 368.04,346.00 356.07,346.00 C331.16,346.00 313.70,355.16 307.94,371.25 L 306.60 375.00 L 258.00 375.00 L 258.00 314.00 L 338.00 314.00 L 338.00 289.00 L 229.00 289.00 L 229.00 487.05 L 243.25 486.78 L 257.50 486.50 L 258.02 401.00 L 308.95 401.00 L 310.39 403.75 C312.17,407.14 318.31,412.99 323.00,415.76 C328.13,418.80 337.72,422.33 353.30,426.94 C377.57,434.11 383.13,438.22 383.79,449.46 C384.10,454.74 383.79,456.04 381.32,459.80 C379.36,462.78 376.82,464.92 373.00,466.80 C368.17,469.17 366.34,469.50 358.00,469.47 C350.32,469.44 347.54,469.00 343.50,467.17 C335.11,463.37 328.51,455.82 325.58,446.64 C324.89,444.51 324.41,444.58 310.66,448.71 C301.84,451.36 301.82,451.37 302.41,454.31 C305.62,470.34 321.90,484.53 341.58,488.44 ZM 320.50 532.25 C322.15,532.54 326.42,532.58 330.00,532.33 C357.60,530.40 385.24,519.66 407.00,502.42 C417.34,494.23 431.01,479.36 438.34,468.33 C445.82,457.08 454.01,439.16 456.43,428.75 C457.29,425.04 458.74,418.96 459.65,415.25 C461.86,406.19 462.63,379.56 461.02,367.61 C455.72,328.21 435.87,294.30 404.20,270.53 C387.98,258.35 363.90,247.95 343.50,244.31 C332.57,242.35 306.31,242.10 297.00,243.85 C285.53,246.01 268.83,251.10 260.39,255.00 C241.05,263.93 219.62,281.37 206.41,298.94 C202.87,303.65 197.15,313.12 193.71,320.00 C183.00,341.36 180.77,347.84 181.70,354.81 C181.98,356.87 181.48,362.40 180.60,367.11 C179.72,371.81 179.01,378.77 179.03,382.58 C179.06,388.88 179.19,389.33 180.53,387.56 C181.96,385.68 182.00,385.69 182.00,387.98 C182.00,389.27 182.22,390.12 182.48,389.85 C182.75,389.58 183.45,383.78 184.04,376.96 C185.90,355.60 189.92,341.00 198.71,323.71 C205.49,310.36 213.14,300.00 224.19,289.20 C252.38,261.64 286.26,248.82 325.00,251.05 C341.04,251.98 345.88,252.87 359.53,257.44 C385.76,266.22 407.72,282.35 423.68,304.56 C437.92,324.38 445.10,342.29 448.32,366.06 C450.13,379.36 450.22,383.98 448.94,397.50 C446.09,427.54 435.40,453.40 416.84,475.17 C410.98,482.04 410.52,483.86 415.98,478.52 C418.17,476.38 420.24,474.91 420.57,475.24 C421.91,476.58 403.95,493.67 393.25,501.24 C387.07,505.62 382.26,509.62 382.57,510.12 C382.70,510.33 382.79,510.50 382.92,510.59 C383.45,510.95 384.79,510.09 392.43,505.18 L 393.65 504.40 C398.14,501.52 403.76,497.46 406.15,495.38 C412.97,489.43 414.76,488.25 411.50,491.83 C406.17,497.71 389.49,509.73 380.38,514.28 C368.49,520.22 351.84,525.68 353.42,523.12 C353.71,522.66 351.37,522.88 348.22,523.62 C345.08,524.36 336.31,525.27 328.75,525.64 C315.81,526.27 311.51,527.32 317.75,528.31 C319.26,528.55 316.45,528.61 311.50,528.43 C305.67,528.22 303.38,528.40 305.00,528.95 C306.38,529.42 310.88,529.89 315.00,530.00 C320.16,530.14 321.72,530.43 320.00,530.95 L 317.50 531.71 ZM 501.75 463.41 C502.16,463.82 509.97,464.01 519.10,463.83 L 535.71 463.50 L 542.57 460.00 C554.77,453.78 560.51,442.50 560.38,425.00 C560.32,416.52 559.97,414.75 557.11,408.50 C553.25,400.06 548.46,394.91 541.61,391.82 C537.02,389.76 534.69,389.49 518.75,389.18 L 501.00 388.84 L 501.00 425.75 C501.00,446.06 501.34,463.00 501.75,463.41 ZM 864.82 463.49 C865.15,463.82 867.66,463.96 870.40,463.79 L 875.38 463.50 L 878.34 455.23 L 881.29 446.95 L 898.31 447.23 L 915.32 447.50 L 917.75 454.50 C919.08,458.35 920.64,462.06 921.21,462.75 C922.33,464.10 930.58,464.49 931.35,463.24 C931.77,462.57 919.10,427.25 908.22,398.76 L 904.50 389.01 L 898.20 389.01 C892.02,389.00 891.87,389.06 890.62,392.25 C887.28,400.79 883.37,411.30 876.02,431.50 C871.61,443.60 867.16,455.61 866.12,458.19 C865.07,460.77 864.49,463.16 864.82,463.49 ZM 667.53 463.33 C678.54,466.71 689.89,464.78 698.77,458.02 C701.67,455.81 704.23,454.00 704.47,454.00 C704.70,454.00 705.03,456.14 705.20,458.75 L 705.50 463.50 L 713.50 463.50 L 714.04 425.00 L 679.00 425.00 L 679.00 434.00 L 691.15 434.00 C698.61,434.00 702.01,434.00 702.82,435.45 C703.50,436.66 702.37,438.88 700.30,442.97 L 700.25 443.07 C696.57,450.33 690.35,454.26 681.63,454.81 C669.80,455.56 660.94,450.87 655.50,440.96 C652.77,435.99 652.51,434.69 652.57,426.50 C652.63,418.86 653.04,416.73 655.25,412.44 C660.22,402.74 667.77,398.02 678.31,398.01 C687.03,398.00 691.99,399.90 697.43,405.33 L 702.41 410.32 L 705.96 408.27 C707.91,407.14 709.64,405.54 709.80,404.71 C710.30,402.24 701.90,394.30 695.85,391.53 C688.79,388.30 679.18,387.31 670.83,388.95 C658.82,391.32 650.82,397.31 645.43,408.00 C643.02,412.77 642.60,414.96 642.23,424.50 C641.86,433.91 642.10,436.30 643.90,441.05 C648.00,451.92 656.52,459.96 667.53,463.33 ZM 537.07 451.25 C532.24,453.69 530.55,454.00 521.82,454.00 L 512.00 454.00 L 512.00 399.00 L 522.25 399.02 C530.02,399.04 533.48,399.49 536.54,400.88 C544.97,404.71 549.02,413.35 548.98,427.43 C548.96,434.49 548.55,436.32 545.73,442.00 C542.88,447.73 541.86,448.83 537.07,451.25 ZM 812.00 399.08 L 812.00 464.00 L 822.00 464.00 L 822.00 399.00 L 841.00 399.00 L 841.00 389.00 L 792.89 389.00 L 793.20 393.75 L 793.50 398.50 L 802.75 398.79 ZM 964.69 463.36 C965.07,463.74 973.06,463.92 982.44,463.77 L 999.50 463.50 L 999.80 458.75 L 1000.11 454.00 L 975.22 454.00 L 974.58 451.47 C974.23,450.07 973.99,435.56 974.03,419.22 L 974.12 389.50 L 969.06 389.20 L 964.00 388.90 L 964.00 425.78 C964.00,446.07 964.31,462.98 964.69,463.36 ZM 750.71 463.38 C751.10,463.77 753.47,463.96 755.96,463.80 L 760.50 463.50 L 760.76 426.25 L 761.02 389.00 L 750.00 389.00 L 750.00 425.83 C750.00,446.09 750.32,462.99 750.71,463.38 ZM 596.67 463.33 C597.03,463.70 599.28,464.00 601.67,464.00 L 606.00 464.00 L 606.00 389.00 L 596.00 389.00 L 596.00 425.83 C596.00,446.09 596.30,462.97 596.67,463.33 ZM 910.34 435.00 C910.47,436.25 908.44,436.55 898.33,436.78 C891.63,436.93 885.97,436.71 885.74,436.28 C885.30,435.45 896.24,404.43 897.37,403.30 C897.73,402.93 898.52,403.12 899.11,403.71 C900.20,404.80 910.05,432.24 910.34,435.00 ZM 281.25 525.88 C285.66,527.15 287.00,527.18 287.00,526.00 C287.00,525.45 286.21,524.95 285.25,524.89 C284.29,524.82 282.26,524.63 280.75,524.45 C277.03,524.00 277.28,524.73 281.25,525.88 ZM 182.68 350.81 C182.97,351.53 182.94,352.40 182.60,352.73 C182.27,353.06 182.04,352.47 182.08,351.42 C182.13,350.25 182.36,350.01 182.68,350.81 Z" fill="rgb(0,0,0)"/>
<path d="M 341.58 488.44 C321.90,484.53 305.62,470.34 302.41,454.31 C301.82,451.37 301.84,451.36 310.66,448.71 C324.41,444.58 324.89,444.51 325.58,446.64 C328.51,455.82 335.11,463.37 343.50,467.17 C347.54,469.00 350.32,469.44 358.00,469.47 C366.34,469.50 368.17,469.17 373.00,466.80 C376.82,464.92 379.36,462.78 381.32,459.80 C383.79,456.04 384.10,454.74 383.79,449.46 C383.13,438.22 377.57,434.11 353.30,426.94 C337.72,422.33 328.13,418.80 323.00,415.76 C318.31,412.99 312.17,407.14 310.39,403.75 L 308.95 401.00 L 258.02 401.00 L 257.50 486.50 L 243.25 486.78 L 229.00 487.05 L 229.00 289.00 L 338.00 289.00 L 338.00 314.00 L 258.00 314.00 L 258.00 375.00 L 306.60 375.00 L 307.94 371.25 C313.70,355.16 331.16,346.00 356.07,346.00 C368.04,346.00 375.21,347.52 384.65,352.05 C390.34,354.78 394.02,357.35 396.89,360.61 C401.74,366.13 405.85,374.17 406.23,378.91 L 406.50 382.32 L 397.50 384.66 C392.55,385.94 387.67,386.88 386.65,386.74 C385.50,386.59 384.30,385.04 383.48,382.63 C381.42,376.61 376.96,371.76 370.62,368.67 C365.50,366.17 363.73,365.85 355.44,365.86 C344.56,365.89 339.06,367.76 334.72,372.92 C331.41,376.85 330.60,379.77 331.24,385.44 C332.37,395.50 338.58,399.00 370.50,407.56 C384.22,411.24 394.25,416.16 400.23,422.13 C406.10,428.00 408.80,433.71 409.85,442.45 C412.74,466.43 399.91,483.22 374.72,488.42 C365.56,490.32 351.07,490.32 341.58,488.44 Z" fill="rgb(2,228,252)"/>
<path d="M 320.50 532.25 L 317.50 531.71 L 320.00 530.95 C321.72,530.43 320.16,530.14 315.00,530.00 C310.88,529.89 306.38,529.42 305.00,528.95 C303.38,528.40 305.67,528.22 311.50,528.43 C316.45,528.61 319.26,528.55 317.75,528.31 C311.51,527.32 315.81,526.27 328.75,525.64 C336.31,525.27 345.08,524.36 348.22,523.62 C351.37,522.88 353.71,522.66 353.42,523.12 C351.84,525.68 368.49,520.22 380.38,514.28 C389.49,509.73 406.17,497.71 411.50,491.83 C414.76,488.25 412.97,489.43 406.15,495.38 C403.76,497.46 398.14,501.52 393.65,504.40 L 392.43 505.18 L 391.70 505.65 C400.38,499.74 425.25,478.00 423.19,478.00 C422.88,478.00 423.76,476.76 425.14,475.25 C432.14,467.59 439.42,454.71 445.48,439.25 C447.04,435.26 448.65,432.00 449.05,432.00 C449.94,432.00 451.03,427.90 451.58,422.50 C451.80,420.31 452.44,418.35 453.00,418.17 C453.56,417.98 453.79,417.48 453.53,417.05 C453.26,416.62 453.77,412.72 454.65,408.38 C455.65,403.46 456.34,394.20 456.49,383.72 C456.62,374.48 456.98,366.69 457.28,366.39 C458.57,365.09 459.11,381.71 458.16,393.56 C456.27,416.95 452.38,432.08 443.67,449.89 C435.83,465.93 429.79,474.31 416.55,487.53 C400.14,503.90 383.35,514.76 364.77,521.00 C361.07,522.24 358.26,523.61 358.52,524.03 C358.79,524.46 357.99,524.59 356.75,524.32 C355.07,523.95 354.85,524.08 355.90,524.81 C357.52,525.96 348.27,528.23 333.00,530.42 L 323.50 531.79 L 330.00 531.89 C332.72,531.94 335.63,531.78 338.68,531.44 C335.79,531.83 332.90,532.13 330.00,532.33 C326.42,532.58 322.15,532.54 320.50,532.25 ZM 410.00 497.20 C401.07,504.70 397.00,507.65 397.00,506.63 C397.00,506.39 400.11,503.89 403.90,501.07 C412.13,494.97 427.02,479.64 433.01,471.10 C435.38,467.73 437.51,465.18 437.76,465.43 C438.26,465.92 431.15,475.48 424.04,483.86 C421.54,486.81 415.23,492.81 410.00,497.20 ZM 906.96 424.20 C903.90,415.38 899.79,404.39 899.11,403.71 C898.52,403.12 897.73,402.93 897.37,403.30 C896.45,404.21 889.14,424.63 886.60,432.88 C887.36,430.25 888.59,426.41 890.03,422.23 C892.64,414.68 895.35,406.57 896.06,404.22 C896.76,401.87 897.65,400.29 898.03,400.72 C899.08,401.92 903.67,414.38 906.96,424.20 ZM 281.25 525.88 C277.28,524.73 277.03,524.00 280.75,524.45 C282.26,524.63 284.29,524.82 285.25,524.89 C286.21,524.95 287.00,525.45 287.00,526.00 C287.00,527.18 285.66,527.15 281.25,525.88 ZM 401.30 506.70 C407.29,501.99 416.63,493.51 425.10,485.00 C419.11,491.65 412.57,498.01 407.00,502.42 C405.14,503.89 403.24,505.32 401.30,506.70 ZM 910.38 436.19 C909.84,437.07 886.67,437.34 885.81,436.48 C885.79,436.46 885.78,436.40 885.78,436.32 C886.34,436.72 891.85,436.93 898.33,436.78 C907.52,436.57 910.04,436.30 910.32,435.32 C910.41,435.80 910.44,436.10 910.38,436.19 ZM 358.17 527.33 C368.37,524.31 378.99,519.92 388.80,514.59 C379.14,519.99 368.81,524.29 358.17,527.33 ZM 436.38 471.15 C440.58,464.95 444.69,457.78 448.14,450.67 C445.11,457.05 441.65,463.34 438.34,468.33 C437.73,469.25 437.08,470.19 436.38,471.15 ZM 182.68 350.81 C182.97,351.53 182.94,352.40 182.60,352.73 C182.27,353.06 182.04,352.47 182.08,351.42 C182.13,350.25 182.36,350.01 182.68,350.81 ZM 384.52 510.14 C383.53,510.67 383.15,510.75 382.92,510.59 C382.79,510.51 382.71,510.35 382.60,510.16 C382.59,510.14 382.58,510.13 382.57,510.12 C382.26,509.62 387.07,505.62 393.25,501.24 C387.07,505.62 382.27,509.63 382.60,510.16 C382.85,510.57 383.59,510.54 384.52,510.14 ZM 389.43 507.11 C388.58,507.65 387.85,508.12 387.21,508.52 C387.93,508.06 388.70,507.57 389.43,507.11 Z" fill="rgb(49,24,78)"/>
<path d="M 333.00 530.42 C348.27,528.23 357.52,525.96 355.90,524.81 C354.85,524.08 355.07,523.95 356.75,524.32 C357.99,524.59 358.79,524.46 358.52,524.03 C358.26,523.61 361.07,522.24 364.77,521.00 C383.35,514.76 400.14,503.90 416.55,487.53 C429.79,474.31 435.83,465.93 443.67,449.89 C452.38,432.08 456.27,416.95 458.16,393.56 C459.11,381.71 458.57,365.09 457.28,366.39 C456.98,366.69 456.62,374.48 456.49,383.72 C456.34,394.20 455.65,403.46 454.65,408.38 C453.77,412.72 453.26,416.62 453.53,417.05 C453.79,417.48 453.56,417.98 453.00,418.17 C452.44,418.35 451.80,420.31 451.58,422.50 C451.03,427.90 449.94,432.00 449.05,432.00 C448.65,432.00 447.04,435.26 445.48,439.25 C439.42,454.71 432.14,467.59 425.14,475.25 C423.76,476.76 422.88,478.00 423.19,478.00 C425.33,478.00 398.37,501.50 390.75,506.28 C389.24,507.22 386.92,508.70 385.59,509.55 C384.18,510.46 382.94,510.71 382.60,510.16 C382.27,509.63 387.07,505.62 393.25,501.24 C403.95,493.67 421.91,476.58 420.57,475.24 C420.24,474.91 418.17,476.38 415.98,478.52 C410.52,483.86 410.98,482.04 416.84,475.17 C435.40,453.40 446.09,427.54 448.94,397.50 C450.22,383.98 450.13,379.36 448.32,366.06 C445.10,342.29 437.92,324.38 423.68,304.56 C407.72,282.35 385.76,266.22 359.53,257.44 C345.88,252.87 341.04,251.98 325.00,251.05 C293.45,249.24 264.62,257.61 239.57,275.88 C230.13,282.76 216.90,295.88 209.76,305.45 C203.26,314.16 190.38,339.16 189.45,344.89 C189.12,346.88 188.47,349.40 188.00,350.50 C187.53,351.60 186.92,353.17 186.65,354.00 C186.26,355.19 186.14,355.14 186.08,353.79 C186.04,352.85 187.11,348.59 188.46,344.33 C189.81,340.07 190.75,336.41 190.53,336.20 C190.08,335.74 185.41,350.25 183.89,356.88 C183.30,359.42 182.23,366.23 181.52,372.00 C180.28,382.02 180.21,382.20 180.12,376.00 C180.07,372.42 181.17,364.10 182.58,357.50 C183.99,350.90 185.34,344.38 185.59,343.00 C185.98,340.80 185.92,340.74 185.08,342.50 C183.13,346.65 184.10,341.78 186.50,335.40 C190.57,324.58 199.69,307.91 206.50,298.84 C219.58,281.41 241.08,263.92 260.39,255.00 C268.83,251.10 285.53,246.01 297.00,243.85 C306.31,242.10 332.57,242.35 343.50,244.31 C363.90,247.95 387.98,258.35 404.20,270.53 C435.87,294.30 455.72,328.21 461.02,367.61 C462.63,379.56 461.86,406.19 459.65,415.25 C458.74,418.96 457.29,425.04 456.43,428.75 C452.58,445.29 438.16,471.75 426.58,483.52 C415.66,494.61 402.86,506.03 397.52,509.44 C376.30,523.02 348.69,532.20 330.00,531.89 L 323.50 531.79 L 333.00 530.42 ZM 410.00 497.20 C415.23,492.81 421.54,486.81 424.04,483.86 C431.15,475.48 438.26,465.92 437.76,465.43 C437.51,465.18 435.38,467.73 433.01,471.10 C427.02,479.64 412.13,494.97 403.90,501.07 C400.11,503.89 397.00,506.39 397.00,506.63 C397.00,507.65 401.07,504.70 410.00,497.20 ZM 667.53 463.33 C656.52,459.96 648.00,451.92 643.90,441.05 C642.10,436.30 641.86,433.91 642.23,424.50 C642.60,414.96 643.02,412.77 645.43,408.00 C650.82,397.31 658.82,391.32 670.83,388.95 C679.18,387.31 688.79,388.30 695.85,391.53 C701.90,394.30 710.30,402.24 709.80,404.71 C709.64,405.54 707.91,407.14 705.96,408.27 L 702.41 410.32 L 697.43 405.33 C691.99,399.90 687.03,398.00 678.31,398.01 C667.77,398.02 660.22,402.74 655.25,412.44 C653.04,416.73 652.63,418.86 652.57,426.50 C652.51,434.69 652.77,435.99 655.50,440.96 C660.94,450.87 669.80,455.56 681.63,454.81 C690.35,454.26 696.57,450.33 700.25,443.07 C704.86,433.97 704.90,434.00 691.00,434.00 L 679.00 434.00 L 679.00 429.50 L 679.00 425.00 L 696.52 425.00 L 714.04 425.00 L 713.77 444.25 L 713.50 463.50 L 709.50 463.50 L 705.50 463.50 L 705.20 458.75 C705.03,456.14 704.70,454.00 704.47,454.00 C704.23,454.00 701.67,455.81 698.77,458.02 C689.89,464.78 678.54,466.71 667.53,463.33 ZM 501.75 463.41 C501.34,463.00 501.00,446.06 501.00,425.75 L 501.00 388.84 L 518.75 389.18 C534.69,389.49 537.02,389.76 541.61,391.82 C548.46,394.91 553.25,400.06 557.11,408.50 C559.97,414.75 560.32,416.52 560.38,425.00 C560.51,442.50 554.77,453.78 542.57,460.00 L 535.71 463.50 L 519.10 463.83 C509.97,464.01 502.16,463.82 501.75,463.41 ZM 537.07 451.25 C541.86,448.83 542.88,447.73 545.73,442.00 C548.55,436.32 548.96,434.49 548.98,427.43 C549.02,413.35 544.97,404.71 536.54,400.88 C533.48,399.49 530.02,399.04 522.25,399.02 L 512.00 399.00 L 512.00 426.50 L 512.00 454.00 L 521.82 454.00 C530.55,454.00 532.24,453.69 537.07,451.25 ZM 596.67 463.33 C596.30,462.97 596.00,446.09 596.00,425.83 L 596.00 389.00 L 601.00 389.00 L 606.00 389.00 L 606.00 426.50 L 606.00 464.00 L 601.67 464.00 C599.28,464.00 597.03,463.70 596.67,463.33 ZM 750.71 463.38 C750.32,462.99 750.00,446.09 750.00,425.83 L 750.00 389.00 L 755.51 389.00 L 761.02 389.00 L 760.76 426.25 L 760.50 463.50 L 755.96 463.80 C753.47,463.96 751.10,463.77 750.71,463.38 ZM 812.00 431.54 L 812.00 399.08 L 802.75 398.79 L 793.50 398.50 L 793.20 393.75 L 792.89 389.00 L 816.95 389.00 L 841.00 389.00 L 841.00 394.00 L 841.00 399.00 L 831.50 399.00 L 822.00 399.00 L 822.00 431.50 L 822.00 464.00 L 817.00 464.00 L 812.00 464.00 L 812.00 431.54 ZM 864.82 463.49 C864.49,463.16 865.07,460.77 866.12,458.19 C867.16,455.61 871.61,443.60 876.02,431.50 C883.37,411.30 887.28,400.79 890.62,392.25 C891.87,389.06 892.02,389.00 898.20,389.01 L 904.50 389.01 L 908.22 398.76 C919.10,427.25 931.77,462.57 931.35,463.24 C930.58,464.49 922.33,464.10 921.21,462.75 C920.64,462.06 919.08,458.35 917.75,454.50 L 915.32 447.50 L 898.31 447.23 L 881.29 446.95 L 878.34 455.23 L 875.38 463.50 L 870.40 463.79 C867.66,463.96 865.15,463.82 864.82,463.49 ZM 910.38 436.19 C911.05,435.10 899.76,402.69 898.03,400.72 C897.65,400.29 896.76,401.87 896.06,404.22 C895.35,406.57 892.64,414.68 890.03,422.23 C887.42,429.78 885.52,436.19 885.81,436.48 C886.67,437.34 909.84,437.07 910.38,436.19 ZM 964.69 463.36 C964.31,462.98 964.00,446.07 964.00,425.78 L 964.00 388.90 L 969.06 389.20 L 974.12 389.50 L 974.03 419.22 C973.99,435.56 974.23,450.07 974.58,451.47 L 975.22 454.00 L 987.66 454.00 L 1000.11 454.00 L 999.80 458.75 L 999.50 463.50 L 982.44 463.77 C973.06,463.92 965.07,463.74 964.69,463.36 Z" fill="rgb(158,84,231)"/>
</g>
</svg>